<?xml version="1.0" encoding="utf-8"?><svg xmlns="http://www.w3.org/2000/svg" viewBox="0 0 10.48 8.49"><defs><style>.cls-1{fill:#fff;}</style></defs><title>testimonial_5</title><g id="Layer_2" data-name="Layer 2"><g id="Layer_1-2" data-name="Layer 1"><path class="cls-1" d="M5.88,2.41A2.39,2.39,0,0,1,6.53.67,2.21,2.21,0,0,1,8.18,0,2.25,2.25,0,0,1,9.81.65a2.33,2.33,0,0,1,.67,1.75,2.62,2.62,0,0,1-.15.93,8.8,8.8,0,0,1-.46,1L7.7,8.49H5.46L6.91,4.4A2.2,2.2,0,0,1,5.88,2.41Zm-5.47,0A2.38,2.38,0,0,1,1.07.67,2.2,2.2,0,0,1,2.71,0,2.25,2.25,0,0,1,4.35.65,2.33,2.33,0,0,1,5,2.41a2.62,2.62,0,0,1-.16.93,8.72,8.72,0,0,1-.46,1L2.23,8.49H0L1.44,4.4A2.2,2.2,0,0,1,.41,2.41Z"/></g></g></svg>